<?xml version="1.0" standalone="no"?>
<!DOCTYPE svg PUBLIC "-//W3C//DTD SVG 20010904//EN"
 "http://www.w3.org/TR/2001/REC-SVG-20010904/DTD/svg10.dtd">
<svg version="1.0" xmlns="http://www.w3.org/2000/svg"
 width="225.000000pt" height="225.000000pt" viewBox="0 0 225.000000 225.000000"
 preserveAspectRatio="xMidYMid meet">

<g transform="translate(0.000000,225.000000) scale(0.100000,-0.100000)"
fill="#000000" stroke="none">
<path d="M1207 1945 c-21 -45 -16 -55 30 -55 46 0 161 -34 232 -69 90 -44 136
-77 212 -151 53 -51 77 -68 93 -65 11 2 29 4 39 4 42 2 -3 63 -56 75 -17 4
-35 2 -43 -5 -11 -9 -15 -7 -21 7 -4 10 -22 33 -40 51 -17 18 -37 51 -43 74
-9 31 -18 44 -43 54 -24 10 -34 10 -39 2 -6 -9 -8 -9 -8 1 0 9 -12 11 -47 7
-59 -8 -106 10 -154 59 -19 20 -48 38 -64 42 -28 5 -32 2 -48 -31z"/>
<path d="M897 1949 c-14 -8 -16 -14 -7 -24 7 -8 10 -20 7 -27 -4 -8 -6 -7 -6
5 -1 27 -27 20 -51 -13 -32 -44 -76 -64 -148 -65 -57 -1 -66 -4 -87 -31 -13
-16 -26 -45 -30 -64 -10 -52 -50 -98 -111 -127 -72 -34 -94 -63 -41 -54 5 1 6
-3 2 -9 -3 -5 -15 -10 -26 -10 -22 0 -27 -38 -7 -58 24 -24 67 -3 60 31 -1 4
3 7 10 7 6 0 9 3 6 6 -3 3 5 17 18 31 13 14 24 30 24 35 0 9 107 117 155 157
38 32 179 106 230 121 22 6 45 13 52 15 8 3 8 13 -2 41 -14 43 -22 48 -48 33z
m-437 -399 c0 -5 -4 -10 -10 -10 -5 0 -10 5 -10 10 0 6 5 10 10 10 6 0 10 -4
10 -10z"/>
<path d="M956 1952 c-3 -6 0 -22 8 -37 12 -23 15 -24 19 -8 4 16 5 16 6 1 1
-13 10 -18 31 -18 17 0 30 3 30 8 0 4 29 6 64 4 61 -3 64 -3 68 22 7 36 0 39
-39 15 -28 -17 -44 -20 -83 -16 -27 3 -60 13 -74 22 -14 9 -27 12 -30 7z"/>
<path d="M1193 1863 c9 -2 25 -2 35 0 9 3 1 5 -18 5 -19 0 -27 -2 -17 -5z"/>
<path d="M1119 1818 c-15 -12 -39 -87 -39 -122 0 -27 19 -18 26 12 3 15 11 45
17 67 l10 40 8 -35 c5 -19 6 -42 3 -52 -3 -10 4 -23 17 -32 25 -17 40 -13 21
6 -7 7 -12 28 -12 48 0 19 -8 45 -18 58 -15 19 -20 20 -33 10z"/>
<path d="M951 1799 c-18 -7 -22 -14 -17 -32 4 -12 12 -42 19 -67 9 -34 16 -44
29 -42 13 3 15 8 9 26 -6 13 -5 29 1 40 7 13 5 21 -8 30 -20 15 -11 36 17 36
10 0 19 5 19 10 0 12 -37 12 -69 -1z"/>
<path d="M1249 1768 c-20 -76 -22 -98 -5 -98 8 0 18 9 21 20 9 29 22 25 30
-10 4 -17 13 -30 21 -30 12 0 14 9 9 43 -6 35 -3 46 14 61 25 22 26 32 7 39
-9 4 -21 -5 -31 -20 -10 -14 -12 -22 -6 -19 6 4 11 3 11 -2 0 -8 -22 -22 -35
-22 -2 0 -2 18 0 40 6 56 -20 54 -36 -2z"/>
<path d="M775 1780 c-3 -6 1 -7 9 -4 18 7 21 14 7 14 -6 0 -13 -4 -16 -10z"/>
<path d="M1520 1766 c0 -2 8 -10 18 -17 15 -13 16 -12 3 4 -13 16 -21 21 -21
13z"/>
<path d="M1015 1750 c-3 -5 -1 -10 4 -10 6 0 11 5 11 10 0 6 -2 10 -4 10 -3 0
-8 -4 -11 -10z"/>
<path d="M1417 1746 c-3 -7 -1 -18 5 -24 7 -7 7 -16 0 -29 -9 -16 -6 -21 19
-30 34 -13 49 1 19 17 -11 6 -20 17 -20 25 0 19 33 24 46 6 8 -10 13 -11 18
-3 4 7 -10 19 -36 32 -50 24 -45 23 -51 6z"/>
<path d="M1385 1680 c-14 -22 -25 -41 -25 -44 0 -11 80 -44 85 -36 3 6 -5 15
-19 21 -26 12 -29 38 -11 82 13 31 -4 18 -30 -23z"/>
<path d="M1590 1717 c0 -2 15 -16 33 -33 l32 -29 -29 33 c-28 30 -36 37 -36
29z"/>
<path d="M649 1693 c-13 -16 -12 -17 4 -4 9 7 17 15 17 17 0 8 -8 3 -21 -13z"/>
<path d="M1101 1630 c-7 -4 1 -7 19 -8 18 0 29 2 26 6 -10 9 -32 11 -45 2z"/>
<path d="M1685 1620 c10 -11 20 -20 23 -20 3 0 -3 9 -13 20 -10 11 -20 20 -23
20 -3 0 3 -9 13 -20z"/>
<path d="M550 1590 c-18 -23 -31 -42 -29 -44 2 -2 19 16 37 40 41 55 35 58 -8
4z"/>
<path d="M1045 1620 c3 -5 8 -10 11 -10 2 0 4 5 4 10 0 6 -5 10 -11 10 -5 0
-7 -4 -4 -10z"/>
<path d="M1190 1620 c14 -4 39 -8 55 -9 23 0 26 2 15 9 -8 5 -33 9 -55 9 -35
-1 -37 -2 -15 -9z"/>
<path d="M980 1611 c-66 -21 -197 -101 -164 -101 5 0 19 8 30 18 20 18 83 50
149 76 41 15 30 20 -15 7z"/>
<path d="M1284 1603 c8 -8 78 -33 91 -32 14 1 -67 37 -84 38 -8 1 -11 -2 -7
-6z"/>
<path d="M1760 1583 c1 -14 27 -43 39 -43 7 0 9 -4 6 -10 -7 -12 22 -70 35
-70 12 0 12 -2 -1 60 -6 27 -15 48 -20 44 -5 -3 -9 2 -9 10 0 10 -9 16 -25 16
-14 0 -25 -3 -25 -7z"/>
<path d="M1720 1576 c0 -2 8 -10 18 -17 15 -13 16 -12 3 4 -13 16 -21 21 -21
13z"/>
<path d="M1390 1562 c0 -5 18 -22 40 -37 23 -16 54 -44 71 -63 17 -19 33 -32
36 -28 7 7 -70 84 -114 115 -18 12 -33 18 -33 13z"/>
<path d="M1173 1535 c-22 -24 -16 -52 13 -58 19 -3 24 -1 20 10 -3 7 1 16 8
19 12 4 11 9 -5 25 -22 22 -21 22 -36 4z"/>
<path d="M1026 1512 c-8 -13 11 -35 23 -28 16 10 14 36 -3 36 -8 0 -17 -4 -20
-8z"/>
<path d="M780 1489 c0 -5 5 -7 10 -4 6 3 10 8 10 11 0 2 -4 4 -10 4 -5 0 -10
-5 -10 -11z"/>
<path d="M470 1470 c-6 -11 -8 -20 -6 -20 3 0 10 9 16 20 6 11 8 20 6 20 -3 0
-10 -9 -16 -20z"/>
<path d="M1300 1464 c0 -9 7 -14 17 -12 25 5 28 28 4 28 -12 0 -21 -6 -21 -16z"/>
<path d="M745 1460 c-3 -6 1 -7 9 -4 18 7 21 14 7 14 -6 0 -13 -4 -16 -10z"/>
<path d="M297 1443 c-6 -9 -29 -188 -32 -243 0 -20 -4 -40 -7 -45 -3 -6 -9
-35 -13 -67 -8 -65 -9 -64 95 -73 36 -3 76 -8 90 -10 14 -2 45 -7 70 -10 25
-3 61 -8 80 -11 19 -2 61 -7 92 -9 49 -4 56 -2 51 11 -4 12 6 10 43 -10 49
-26 90 -35 79 -16 -3 6 -2 10 4 10 5 0 14 -7 18 -15 10 -17 140 -24 152 -9 9
13 31 16 31 4 0 -6 -5 -10 -11 -10 -5 0 -8 -4 -5 -9 10 -16 75 -18 81 -3 9 24
5 32 -16 32 -11 0 -40 5 -65 11 -37 10 -45 16 -52 43 -7 27 -13 31 -45 34 -31
3 -39 -1 -49 -22 -10 -23 -17 -26 -63 -26 -61 0 -81 15 -59 44 7 11 11 29 8
42 -6 25 11 64 28 64 6 0 3 -9 -6 -19 -10 -11 -16 -26 -13 -33 2 -7 16 11 31
41 30 62 29 61 16 61 -5 0 -10 -6 -10 -13 0 -8 -7 -14 -15 -14 -8 0 -15 4 -15
9 0 4 5 8 10 8 6 0 15 11 22 25 6 13 15 22 20 19 4 -3 6 -10 3 -15 -4 -5 -4
-9 -1 -9 3 0 17 22 30 49 29 56 35 60 100 56 53 -4 76 -18 76 -46 0 -11 4 -19
9 -19 4 0 11 -33 14 -74 6 -69 22 -151 36 -186 3 -8 7 9 9 39 2 30 -1 57 -6
60 -6 4 -4 11 3 18 18 16 25 -12 25 -99 0 -38 4 -68 10 -68 5 0 7 -6 4 -14 -5
-14 30 -22 139 -32 28 -3 68 -9 88 -13 24 -6 41 -5 48 2 8 8 11 8 11 -1 0 -7
5 -12 10 -12 16 0 12 14 -10 38 -12 12 -33 22 -48 22 -31 0 -62 30 -62 60 0
11 -4 20 -9 20 -5 0 -7 10 -3 23 5 20 4 21 -12 8 -11 -9 -15 -23 -12 -35 3
-11 0 -27 -7 -35 -10 -12 -9 -13 1 -7 12 7 12 4 2 -13 -8 -15 -15 -19 -23 -13
-7 5 -31 12 -55 15 -24 3 -46 8 -49 11 -3 3 0 45 7 93 25 188 30 212 46 221
19 11 6 52 -17 52 -12 0 -19 -7 -19 -18 0 -10 -6 -19 -14 -19 -8 0 -11 7 -9
18 6 21 -3 24 -139 42 -92 12 -97 12 -110 -6 -7 -11 -21 -29 -31 -41 l-19 -21
5 23 c3 12 2 22 -2 22 -3 0 -11 10 -16 23 -11 24 -64 33 -77 13 -6 -8 -11 -6
-18 4 -6 9 -10 10 -10 3 0 -6 4 -14 10 -18 5 -3 8 -22 7 -43 -2 -32 -5 -37
-29 -40 -31 -4 -40 -38 -13 -49 11 -4 15 -16 13 -36 -2 -23 1 -30 15 -33 31
-4 31 -12 0 -47 -24 -27 -34 -32 -47 -25 -19 11 -42 -3 -49 -30 -2 -9 -2 -6 0
8 3 14 5 35 5 48 0 17 3 20 13 12 19 -16 64 -9 57 9 -3 9 -1 12 6 7 6 -3 13
-2 16 2 3 5 -21 10 -52 11 -31 2 -68 4 -81 4 -25 2 -30 -9 -35 -70 -3 -47 -13
-53 -74 -40 -44 9 -54 15 -59 37 -3 14 -11 31 -17 39 -9 11 -8 13 4 9 11 -3
18 9 26 51 7 33 8 57 2 59 -5 2 -4 10 3 18 12 15 15 76 3 95 -4 8 -3 10 4 5 7
-4 12 -2 12 4 0 7 15 10 38 8 24 -2 41 2 50 12 11 13 11 13 6 -1 -7 -22 71
-36 94 -17 9 8 13 8 9 2 -4 -7 0 -15 9 -18 26 -10 32 -7 36 17 2 18 -4 24 -36
34 -35 11 -40 10 -56 -9 -12 -15 -19 -18 -24 -10 -4 7 -2 12 3 12 6 0 11 5 11
11 0 6 -12 9 -28 8 -15 -2 -32 0 -37 3 -6 4 -55 11 -109 17 -55 6 -109 14
-122 17 -12 3 -24 2 -27 -3z m128 -143 c-3 -5 -1 -10 4 -10 6 0 11 5 11 12 0
6 3 8 7 5 3 -4 -1 -15 -10 -25 -10 -10 -14 -22 -10 -27 5 -4 3 -5 -4 -1 -7 4
-9 14 -6 24 6 15 5 15 -10 3 -15 -11 -17 -11 -17 2 0 9 8 18 18 20 9 3 18 5
20 6 2 0 0 -3 -3 -9z m650 -9 c3 -5 1 -12 -5 -16 -5 -3 -10 1 -10 9 0 18 6 21
15 7z m-295 -61 c0 -5 -2 -10 -4 -10 -3 0 -8 5 -11 10 -3 6 -1 10 4 10 6 0 11
-4 11 -10z m-443 -36 c-3 -3 -12 -4 -19 -1 -8 3 -5 6 6 6 11 1 17 -2 13 -5z
m833 -28 c0 -2 -7 -6 -15 -10 -8 -3 -15 -1 -15 4 0 6 7 10 15 10 8 0 15 -2 15
-4z m-800 -21 c7 -8 16 -12 21 -9 5 3 9 -1 9 -10 0 -12 -5 -12 -30 -3 -16 6
-30 17 -30 24 0 17 15 16 30 -2z m-7 -50 c-3 -9 -8 -14 -10 -11 -3 3 -2 9 2
15 9 16 15 13 8 -4z"/>
<path d="M1864 1398 c4 -24 11 -45 17 -46 5 -2 6 -9 3 -14 -4 -6 -1 -16 7 -22
8 -6 14 -20 14 -31 0 -15 7 -20 25 -20 32 0 49 50 31 92 -10 25 -78 83 -96 83
-4 0 -5 -19 -1 -42z m86 -98 c0 -5 -7 -10 -15 -10 -8 0 -15 5 -15 10 0 6 7 10
15 10 8 0 15 -4 15 -10z"/>
<path d="M1567 1370 c15 -27 29 -46 31 -40 5 13 -39 90 -50 90 -5 0 3 -22 19
-50z"/>
<path d="M862 1364 c3 -17 21 -21 26 -6 1 5 -4 12 -13 16 -11 4 -15 1 -13 -10z"/>
<path d="M100 1344 c0 -3 16 -53 35 -110 l36 -106 -48 -71 c-27 -40 -49 -76
-49 -82 -1 -5 -2 -15 -3 -22 0 -6 -9 -14 -18 -17 -10 -2 0 -4 22 -4 22 0 53
-4 68 -11 16 -6 41 -10 55 -9 15 1 37 -2 50 -6 22 -7 22 -6 -9 49 l-32 57 13
107 c21 171 21 168 -7 176 -18 4 -23 10 -18 25 8 25 -12 27 -32 3 -8 -10 -12
-12 -8 -5 4 7 -4 16 -20 22 -30 12 -35 12 -35 4z"/>
<path d="M213 1327 c5 -15 37 -22 37 -9 0 5 -9 12 -21 15 -13 3 -19 1 -16 -6z"/>
<path d="M1240 1307 c0 -17 26 -31 52 -28 19 2 30 -26 28 -72 -3 -49 -2 -49
34 -9 19 20 30 39 25 40 -5 2 -9 8 -9 13 0 8 20 7 100 -6 14 -2 31 -4 38 -4
23 -2 12 -21 -43 -73 -30 -28 -55 -57 -55 -63 0 -17 54 -141 70 -160 12 -15
12 -19 -5 -31 -18 -13 -18 -14 0 -34 15 -16 21 -18 33 -7 13 9 14 9 8 0 -5 -9
0 -13 16 -14 44 -3 80 0 86 6 12 11 -27 37 -59 40 -33 2 -33 3 -32 52 0 27 3
58 7 70 3 11 8 37 10 59 3 21 8 49 12 62 7 24 -10 31 -20 7 -3 -8 -10 -15 -16
-15 -6 0 -4 7 4 16 19 18 30 59 21 73 -8 13 0 14 45 2 35 -10 118 -21 200 -26
25 -2 49 -4 53 -4 4 -1 3 -9 -2 -20 -6 -10 -8 -21 -5 -24 3 -3 -1 -16 -10 -29
-9 -12 -16 -17 -16 -11 0 7 -7 10 -15 7 -8 -4 -15 -15 -15 -26 0 -15 5 -18 16
-14 14 5 16 1 10 -25 -3 -17 -6 -38 -6 -46 0 -10 -7 -13 -22 -8 -20 5 -21 5
-5 -5 9 -6 15 -15 12 -21 -3 -5 0 -6 8 -3 9 3 16 -3 20 -15 3 -11 0 -22 -7
-24 -7 -3 -4 -12 8 -26 15 -16 16 -20 4 -16 -9 4 -18 0 -21 -9 -4 -9 -14 -13
-29 -10 -13 2 -49 7 -81 10 -57 5 -58 5 -55 -18 3 -21 11 -24 118 -40 128 -18
217 -24 226 -15 11 11 8 107 -4 119 -18 18 -14 30 8 23 11 -3 20 -3 21 2 0 4
2 23 5 41 4 36 -2 39 -33 17 -19 -13 -21 -13 -19 1 1 9 17 22 34 30 29 12 32
17 32 56 0 24 3 59 6 79 6 34 4 37 -22 43 -16 4 -51 8 -77 10 -26 2 -51 6 -53
9 -3 3 -21 3 -39 0 -19 -3 -35 -1 -39 6 -10 15 -46 14 -46 -1 0 -10 -3 -9 -9
1 -5 8 -42 16 -102 22 -52 4 -137 15 -189 23 -89 14 -169 20 -127 9 9 -2 17
-8 17 -13 0 -10 -32 -1 -40 11 -3 4 -18 11 -33 14 -20 6 -27 4 -27 -8z m660
-181 c0 -3 -4 -8 -10 -11 -5 -3 -10 -1 -10 4 0 6 5 11 10 11 6 0 10 -2 10 -4z
m65 -36 c-3 -5 -13 -10 -21 -10 -8 0 -14 -5 -14 -11 0 -5 5 -7 12 -3 7 4 8 3
4 -4 -8 -13 -36 -16 -36 -4 0 12 14 29 30 35 24 9 32 8 25 -3z m-34 -84 c-9
-10 -8 -16 4 -26 9 -7 14 -19 11 -26 -3 -8 3 -18 12 -23 14 -8 14 -10 2 -11
-20 0 -35 11 -43 33 -6 15 -14 17 -54 12 -41 -4 -44 -4 -23 6 14 6 30 12 35
13 6 1 21 9 35 19 30 21 36 22 21 3z"/>
<path d="M600 1265 c0 -13 7 -26 16 -29 20 -8 59 -8 67 0 8 9 -11 44 -24 44
-6 0 -7 -4 -4 -10 3 -5 1 -10 -4 -10 -6 0 -11 4 -11 9 0 5 -9 11 -20 14 -16 4
-20 0 -20 -18z"/>
<path d="M937 1158 c-16 -38 -13 -48 14 -48 15 0 19 7 19 34 0 47 -17 54 -33
14z"/>
<path d="M1677 1133 c-18 -17 4 -30 66 -40 26 -4 28 -3 17 17 -9 17 -14 19
-26 10 -11 -10 -15 -9 -20 4 -6 16 -25 21 -37 9z"/>
<path d="M2045 1080 c-9 -14 -15 -140 -7 -140 4 0 8 -9 9 -19 1 -13 -3 -18
-12 -15 -10 4 -15 -11 -20 -61 -6 -54 -13 -71 -34 -91 -14 -13 -26 -30 -26
-37 0 -6 -6 -12 -12 -12 -29 0 -16 -20 17 -26 57 -12 180 -19 180 -10 0 8 -40
126 -61 177 -11 29 -9 35 38 105 52 77 68 115 52 125 -15 9 -119 12 -124 4z
m-27 -358 c-10 -2 -18 -8 -18 -14 0 -6 -3 -8 -6 -5 -11 10 17 38 30 30 7 -5 5
-9 -6 -11z"/>
<path d="M1661 998 c-10 -27 5 -36 60 -37 24 -1 39 4 43 14 3 9 0 15 -10 15
-8 0 -17 7 -20 15 -10 25 -63 19 -73 -7z"/>
<path d="M250 993 c0 -5 5 -15 10 -23 7 -11 12 -12 21 -3 6 6 8 16 5 22 -8 12
-36 15 -36 4z"/>
<path d="M316 978 c-13 -43 -15 -71 -6 -88 17 -33 33 -24 27 14 -5 33 -5 35
18 26 28 -11 34 -4 25 30 -4 17 -8 21 -14 12 -10 -17 -27 -15 -20 3 4 10 0 15
-10 15 -9 0 -18 -6 -20 -12z"/>
<path d="M411 944 c0 -11 3 -14 6 -6 3 7 2 16 -1 19 -3 4 -6 -2 -5 -13z"/>
<path d="M352 894 c-1 -14 2 -23 7 -19 6 3 8 -6 5 -20 -2 -14 0 -25 5 -25 15
0 61 -64 66 -91 3 -13 6 -45 6 -72 1 -40 6 -51 36 -77 18 -17 44 -30 57 -30
37 0 89 -41 111 -87 11 -24 25 -40 33 -38 7 3 12 -5 12 -19 0 -37 23 -49 77
-40 27 4 52 8 57 8 21 2 14 23 -11 37 -48 24 -127 73 -141 86 -7 7 -18 13 -23
13 -5 0 -32 24 -59 53 -27 28 -50 46 -50 39 0 -7 -4 -10 -10 -7 -5 3 -10 18
-10 32 0 22 -3 24 -27 18 -26 -6 -27 -5 -9 8 19 14 19 16 -10 63 -16 27 -41
78 -55 114 -15 36 -31 65 -35 65 -5 0 -14 3 -19 7 -6 4 -12 -4 -13 -18z"/>
<path d="M683 887 c25 -47 73 -107 86 -107 8 0 0 14 -18 35 -17 19 -38 49 -46
65 -9 17 -20 30 -25 30 -5 0 -3 -10 3 -23z"/>
<path d="M430 875 c0 -5 5 -17 10 -25 5 -8 10 -10 10 -5 0 6 -5 17 -10 25 -5
8 -10 11 -10 5z"/>
<path d="M1526 814 c-5 -14 -4 -15 9 -4 17 14 19 20 6 20 -5 0 -12 -7 -15 -16z"/>
<path d="M460 801 c0 -6 4 -13 10 -16 6 -3 7 1 4 9 -7 18 -14 21 -14 7z"/>
<path d="M1310 800 c0 -5 5 -10 10 -10 6 0 10 5 10 10 0 6 -4 10 -10 10 -5 0
-10 -4 -10 -10z"/>
<path d="M935 780 c3 -5 8 -10 11 -10 2 0 4 5 4 10 0 6 -5 10 -11 10 -5 0 -7
-4 -4 -10z"/>
<path d="M1817 755 c-15 -31 -15 -36 -2 -41 8 -4 24 -4 35 -1 11 3 20 1 20 -4
0 -5 -11 -9 -25 -9 -14 0 -25 -6 -25 -12 0 -10 -3 -9 -9 1 -6 10 -35 -14 -114
-93 -58 -58 -110 -106 -116 -106 -17 0 -13 -27 5 -34 12 -4 15 -2 10 9 -3 8
-1 15 4 15 6 0 10 -4 10 -8 0 -5 6 -17 14 -28 14 -19 15 -19 40 5 14 14 26 30
26 37 0 38 34 112 61 130 16 10 27 24 25 30 -3 7 3 10 15 7 32 -9 80 18 95 52
16 40 9 71 -19 79 -32 9 -32 9 -50 -29z"/>
<path d="M1057 752 c-6 -33 17 -59 38 -42 24 20 19 57 -9 62 -20 4 -25 0 -29
-20z"/>
<path d="M1486 765 c-8 -8 -19 -15 -25 -15 -6 0 -11 -4 -11 -8 0 -15 -105 -71
-172 -92 -75 -24 -88 -34 -30 -24 57 10 172 68 222 113 25 22 42 40 38 41 -4
0 -13 -7 -22 -15z"/>
<path d="M1920 753 c0 -22 2 -25 10 -13 13 20 13 40 0 40 -5 0 -10 -12 -10
-27z"/>
<path d="M1225 757 c-4 -10 -5 -21 -1 -24 10 -10 18 4 13 24 -4 17 -4 17 -12
0z"/>
<path d="M500 730 c6 -11 13 -20 16 -20 2 0 0 9 -6 20 -6 11 -13 20 -16 20 -2
0 0 -9 6 -20z"/>
<path d="M810 736 c0 -3 19 -19 42 -36 42 -31 69 -40 50 -17 -13 15 -92 61
-92 53z"/>
<path d="M1726 673 c-6 -14 -5 -15 5 -6 7 7 10 15 7 18 -3 3 -9 -2 -12 -12z"/>
<path d="M820 650 c0 -5 0 -12 0 -15 0 -3 -9 -14 -20 -25 -12 -12 -18 -25 -15
-30 4 -6 2 -10 -3 -10 -15 0 -24 -32 -12 -44 8 -8 16 -4 30 14 14 18 27 24 47
22 24 -2 26 -1 12 10 -26 22 -31 48 -9 48 10 0 22 -4 25 -10 7 -12 35 -14 35
-2 0 7 -73 52 -84 52 -4 0 -6 -4 -6 -10z"/>
<path d="M560 647 c0 -2 15 -16 33 -33 l32 -29 -29 33 c-28 30 -36 37 -36 29z"/>
<path d="M962 645 c8 -8 122 -34 156 -35 12 0 22 4 22 9 0 4 -33 11 -74 14
-40 4 -82 10 -92 13 -10 4 -16 4 -12 -1z"/>
<path d="M1645 588 c-33 -35 -44 -49 -26 -33 43 37 51 45 75 73 38 44 9 20
-49 -40z"/>
<path d="M1160 626 c0 -9 30 -14 35 -6 4 6 -3 10 -14 10 -12 0 -21 -2 -21 -4z"/>
<path d="M960 575 c-6 -7 -13 -20 -14 -28 -1 -7 -12 -26 -24 -41 -27 -35 -28
-46 -2 -46 11 0 20 5 20 10 0 19 32 10 37 -10 9 -35 18 -22 31 47 10 54 10 68
0 75 -19 12 -34 10 -48 -7z m31 -46 c-7 -33 -26 -40 -25 -9 0 11 -4 20 -10 20
-14 0 16 20 30 20 7 0 9 -11 5 -31z"/>
<path d="M645 560 c10 -11 20 -20 23 -20 3 0 -3 9 -13 20 -10 11 -20 20 -23
20 -3 0 3 -9 13 -20z"/>
<path d="M1234 553 c4 -16 11 -45 15 -66 11 -49 12 -50 60 -42 47 8 55 25 12
25 -38 0 -49 27 -16 40 33 13 32 29 -2 27 -23 -2 -28 2 -27 21 0 17 -5 22 -24
22 -21 0 -24 -3 -18 -27z"/>
<path d="M1165 560 c3 -5 10 -10 16 -10 5 0 9 5 9 10 0 6 -7 10 -16 10 -8 0
-12 -4 -9 -10z"/>
<path d="M1095 550 c-13 -21 -18 -117 -6 -124 6 -4 11 -2 11 4 0 6 5 8 10 5 6
-3 10 3 10 14 0 32 17 33 30 1 7 -17 18 -30 26 -30 14 0 12 27 -5 59 -6 11
-11 29 -11 40 0 26 -9 27 -26 4 -12 -16 -13 -15 -14 10 0 27 -13 36 -25 17z"/>
<path d="M1544 504 c-18 -14 -18 -15 4 -4 12 6 22 13 22 15 0 8 -5 6 -26 -11z"/>
<path d="M750 486 c0 -3 9 -10 20 -16 11 -6 20 -8 20 -6 0 3 -9 10 -20 16 -11
6 -20 8 -20 6z"/>
<path d="M1474 464 c-18 -14 -18 -14 6 -3 31 14 36 19 24 19 -6 0 -19 -7 -30
-16z"/>
<path d="M1528 462 c-5 -11 -126 -67 -178 -82 -25 -7 -51 -14 -58 -16 -8 -2
-10 -9 -6 -16 6 -10 4 -10 -8 0 -11 9 -31 11 -65 6 -49 -7 -132 -8 -168 -1
-11 2 -26 -3 -33 -12 -11 -14 -11 -14 -6 2 3 9 2 17 -2 17 -5 0 -39 9 -76 19
-72 21 -102 11 -44 -13 20 -8 53 -33 74 -54 35 -35 44 -40 80 -37 22 1 52 12
67 23 40 32 106 38 163 16 26 -10 56 -19 67 -20 28 -2 65 17 65 33 0 16 43 57
83 79 24 13 53 19 112 24 13 1 -37 39 -52 40 -6 0 -13 -3 -15 -8z m-451 -164
c-3 -7 -5 -2 -5 12 0 14 2 19 5 13 2 -7 2 -19 0 -25z m-63 1 c-3 -5 -10 -7
-15 -3 -5 3 -7 10 -3 15 3 5 10 7 15 3 5 -3 7 -10 3 -15z"/>
<path d="M830 440 c8 -5 20 -10 25 -10 6 0 3 5 -5 10 -8 5 -19 10 -25 10 -5 0
-3 -5 5 -10z"/>
<path d="M1420 440 c-8 -5 -10 -10 -5 -10 6 0 17 5 25 10 8 5 11 10 5 10 -5 0
-17 -5 -25 -10z"/>
<path d="M1178 383 c7 -3 16 -2 19 1 4 3 -2 6 -13 5 -11 0 -14 -3 -6 -6z"/>
</g>
</svg>
